# xmcd
#
# Track frame offsets:
#	150
#	10847
#	22133
#	37498
#	46771
#	57786
#	71936
#	85589
#	100549
#	114604
#	123271
#	138346
#	151686
#	163809
#	177157
#	186771
#	201052
#	216466
#	229707
#	241391
#	257902
#	272007
#	282240
#
# Disc length: 3857
#
# Revision: 1
# Processed by: cddbd v1.5.1PL0 Copyright (c) Steve Scherf et al.
# Submitted via: CDex 1.50beta9
# Normalized: r0:DSETVAR1
#
DISCID=480f0f17
DTITLE=Various Artist - Wie man mit Jazz die Herzen der Frauen gewinnt
DYEAR=2001
DGENRE=Jazz
TTITLE0=Rose Mitchell - Baby, Please Don't Go
TTITLE1=Midge Williams - Dinah
TTITLE2=Nat King Cole - Boulevard Of Broken Dreams
TTITLE3=Rita Hayworth - Put The Blame On Name
TTITLE4=Katia Morlands - Bei Mir Bist Du Schön
TTITLE5=Mary Bryant, Lester Young - On The Sunny Side Of The Street
TTITLE6=Don Byas - Dark Eyes
TTITLE7=The Missourians - Prohibition Blues
TTITLE8=Sippie Wallace, Louis Armstrong - The Flood Blues
TTITLE9=Jack Teagarden - Glass Blues
TTITLE10=Ruth Etting - Love Me Or Leave Me
TTITLE11=Billie Holiday - My Man
TTITLE12=Mae West - I Like A Guy What Takes His Time
TTITLE13=Lil Green - Why Don't You Do Right
TTITLE14=Carlos Cardel - Si Soy Asi
TTITLE15=Julia Lee - Lotus Blossom
TTITLE16=Betti Roché - Trouble, Trouble
TTITLE17=Trixie Smith - My Man Rocks Me
TTITLE18=Johnny Hodges - Krum Elbow Blues
TTITLE19=King Oliver - St. James Infirmary
TTITLE20=Teddy Grace - Love Me Or Leave Me
TTITLE21=Billie Holiday - Travelin' All Alone
TTITLE22=Slim and Slam - Dark Eyes
EXTD=YEAR: 2001
EXTT0=
EXTT1=
EXTT2=
EXTT3=
EXTT4=
EXTT5=
EXTT6=
EXTT7=
EXTT8=
EXTT9=
EXTT10=
EXTT11=
EXTT12=
EXTT13=
EXTT14=
EXTT15=
EXTT16=
EXTT17=
EXTT18=
EXTT19=
EXTT20=
EXTT21=
EXTT22=
PLAYORDER=
